<?xml version="1.0" encoding="UTF-8" standalone="no"?>
<!DOCTYPE svg PUBLIC "-//W3C//DTD SVG 1.1//EN"
 "http://www.w3.org/Graphics/SVG/1.1/DTD/svg11.dtd">
<!-- Generated by graphviz version 2.42.4 (0)
 -->
<!-- Title: snakemake_dag Pages: 1 -->
<svg width="642pt" height="246pt"
 viewBox="0.00 0.00 642.00 246.00" xmlns="http://www.w3.org/2000/svg" xmlns:xlink="http://www.w3.org/1999/xlink">
<g id="graph0" class="graph" transform="scale(1 1) rotate(0) translate(4 242)">
<title>snakemake_dag</title>
<polygon fill="white" stroke="transparent" points="-4,4 -4,-242 638,-242 638,4 -4,4"/>
<!-- 1 -->
<g id="node1" class="node">
<title>1</title>
<path fill="#f5f5f5" stroke="black" stroke-width="1.2" d="M42,-137C42,-137 12,-137 12,-137 6,-137 0,-131 0,-125 0,-125 0,-113 0,-113 0,-107 6,-101 12,-101 12,-101 42,-101 42,-101 48,-101 54,-107 54,-113 54,-113 54,-125 54,-125 54,-131 48,-137 42,-137"/>
<text text-anchor="middle" x="27" y="-116.2" font-family="Helvetica,sans-Serif" font-size="11.00">QC</text>
</g>
<!-- 9 -->
<g id="node9" class="node">
<title>9</title>
<path fill="#f5f5f5" stroke="black" stroke-width="1.2" d="M397,-36C397,-36 317,-36 317,-36 311,-36 305,-30 305,-24 305,-24 305,-12 305,-12 305,-6 311,0 317,0 317,0 397,0 397,0 403,0 409,-6 409,-12 409,-12 409,-24 409,-24 409,-30 403,-36 397,-36"/>
<text text-anchor="middle" x="357" y="-15.2" font-family="Helvetica,sans-Serif" font-size="11.00">Quarto report</text>
</g>
<!-- 1&#45;&gt;9 -->
<g id="edge7" class="edge">
<title>1&#45;&gt;9</title>
<path fill="none" stroke="#888888" stroke-width="1.2" d="M54.32,-109.4C67.71,-105.18 81,-101 81,-101 81,-101 215.9,-60.92 297.08,-36.8"/>
<polygon fill="#888888" stroke="#888888" stroke-width="1.2" points="297.89,-39.48 304.76,-34.52 296.3,-34.11 297.89,-39.48"/>
</g>
<!-- 2 -->
<g id="node2" class="node">
<title>2</title>
<path fill="#f5f5f5" stroke="black" stroke-width="1.2" d="M191,-238C191,-238 123,-238 123,-238 117,-238 111,-232 111,-226 111,-226 111,-214 111,-214 111,-208 117,-202 123,-202 123,-202 191,-202 191,-202 197,-202 203,-208 203,-214 203,-214 203,-226 203,-226 203,-232 197,-238 191,-238"/>
<text text-anchor="middle" x="157" y="-217.2" font-family="Helvetica,sans-Serif" font-size="11.00">exploratory</text>
</g>
<!-- 7 -->
<g id="node7" class="node">
<title>7</title>
<path fill="#f5f5f5" stroke="black" stroke-width="1.2" d="M234,-137C234,-137 176,-137 176,-137 170,-137 164,-131 164,-125 164,-125 164,-113 164,-113 164,-107 170,-101 176,-101 176,-101 234,-101 234,-101 240,-101 246,-107 246,-113 246,-113 246,-125 246,-125 246,-131 240,-137 234,-137"/>
<text text-anchor="middle" x="205" y="-116.2" font-family="Helvetica,sans-Serif" font-size="11.00">PROGENy</text>
</g>
<!-- 2&#45;&gt;7 -->
<g id="edge4" class="edge">
<title>2&#45;&gt;7</title>
<path fill="none" stroke="#888888" stroke-width="1.2" d="M165.36,-201.76C173.07,-185.86 184.59,-162.09 193.23,-144.28"/>
<polygon fill="#888888" stroke="#888888" stroke-width="1.2" points="195.76,-145.47 196.73,-137.05 190.73,-143.02 195.76,-145.47"/>
</g>
<!-- 2&#45;&gt;9 -->
<g id="edge9" class="edge">
<title>2&#45;&gt;9</title>
<path fill="none" stroke="#888888" stroke-width="1.2" d="M154.67,-201.61C151.44,-177.54 146,-137 146,-137 146,-137 146,-101 146,-101 146,-101 242.73,-63.41 305.21,-39.13"/>
<polygon fill="#888888" stroke="#888888" stroke-width="1.2" points="306.58,-41.6 313.02,-36.09 304.55,-36.38 306.58,-41.6"/>
</g>
<!-- 3 -->
<g id="node3" class="node">
<title>3</title>
<path fill="#f5f5f5" stroke="black" stroke-width="1.2" d="M471.5,-238C471.5,-238 424.5,-238 424.5,-238 418.5,-238 412.5,-232 412.5,-226 412.5,-226 412.5,-214 412.5,-214 412.5,-208 418.5,-202 424.5,-202 424.5,-202 471.5,-202 471.5,-202 477.5,-202 483.5,-208 483.5,-214 483.5,-214 483.5,-226 483.5,-226 483.5,-232 477.5,-238 471.5,-238"/>
<text text-anchor="middle" x="448" y="-217.2" font-family="Helvetica,sans-Serif" font-size="11.00">DESeq2</text>
</g>
<!-- 4 -->
<g id="node4" class="node">
<title>4</title>
<path fill="#f5f5f5" stroke="black" stroke-width="1.2" d="M328,-137C328,-137 294,-137 294,-137 288,-137 282,-131 282,-125 282,-125 282,-113 282,-113 282,-107 288,-101 294,-101 294,-101 328,-101 328,-101 334,-101 340,-107 340,-113 340,-113 340,-125 340,-125 340,-131 334,-137 328,-137"/>
<text text-anchor="middle" x="311" y="-116.2" font-family="Helvetica,sans-Serif" font-size="11.00">GSEA</text>
</g>
<!-- 3&#45;&gt;4 -->
<g id="edge1" class="edge">
<title>3&#45;&gt;4</title>
<path fill="none" stroke="#888888" stroke-width="1.2" d="M424.45,-201.98C401.51,-185.41 366.54,-160.13 341.49,-142.03"/>
<polygon fill="#888888" stroke="#888888" stroke-width="1.2" points="342.83,-139.54 334.7,-137.13 339.55,-144.08 342.83,-139.54"/>
</g>
<!-- 5 -->
<g id="node5" class="node">
<title>5</title>
<path fill="#f5f5f5" stroke="black" stroke-width="1.2" d="M418,-137C418,-137 388,-137 388,-137 382,-137 376,-131 376,-125 376,-125 376,-113 376,-113 376,-107 382,-101 388,-101 388,-101 418,-101 418,-101 424,-101 430,-107 430,-113 430,-113 430,-125 430,-125 430,-131 424,-137 418,-137"/>
<text text-anchor="middle" x="403" y="-116.2" font-family="Helvetica,sans-Serif" font-size="11.00">ORA</text>
</g>
<!-- 3&#45;&gt;5 -->
<g id="edge2" class="edge">
<title>3&#45;&gt;5</title>
<path fill="none" stroke="#888888" stroke-width="1.2" d="M440.16,-201.76C433,-186 422.33,-162.52 414.25,-144.76"/>
<polygon fill="#888888" stroke="#888888" stroke-width="1.2" points="416.61,-143.17 410.75,-137.05 411.51,-145.49 416.61,-143.17"/>
</g>
<!-- 6 -->
<g id="node6" class="node">
<title>6</title>
<path fill="#f5f5f5" stroke="black" stroke-width="1.2" d="M510,-137C510,-137 478,-137 478,-137 472,-137 466,-131 466,-125 466,-125 466,-113 466,-113 466,-107 472,-101 478,-101 478,-101 510,-101 510,-101 516,-101 522,-107 522,-113 522,-113 522,-125 522,-125 522,-131 516,-137 510,-137"/>
<text text-anchor="middle" x="494" y="-116.2" font-family="Helvetica,sans-Serif" font-size="11.00">TFEA</text>
</g>
<!-- 3&#45;&gt;6 -->
<g id="edge3" class="edge">
<title>3&#45;&gt;6</title>
<path fill="none" stroke="#888888" stroke-width="1.2" d="M456.01,-201.76C463.33,-186 474.24,-162.52 482.5,-144.76"/>
<polygon fill="#888888" stroke="#888888" stroke-width="1.2" points="485.25,-145.48 486.08,-137.05 480.17,-143.12 485.25,-145.48"/>
</g>
<!-- 3&#45;&gt;7 -->
<g id="edge5" class="edge">
<title>3&#45;&gt;7</title>
<path fill="none" stroke="#888888" stroke-width="1.2" d="M412.41,-204.5C370.57,-187.46 300.92,-159.08 254.01,-139.97"/>
<polygon fill="#888888" stroke="#888888" stroke-width="1.2" points="254.86,-137.29 246.39,-136.86 252.74,-142.47 254.86,-137.29"/>
</g>
<!-- 8 -->
<g id="node8" class="node">
<title>8</title>
<path fill="#f5f5f5" stroke="black" stroke-width="1.2" d="M604,-137C604,-137 570,-137 570,-137 564,-137 558,-131 558,-125 558,-125 558,-113 558,-113 558,-107 564,-101 570,-101 570,-101 604,-101 604,-101 610,-101 616,-107 616,-113 616,-113 616,-125 616,-125 616,-131 610,-137 604,-137"/>
<text text-anchor="middle" x="587" y="-116.2" font-family="Helvetica,sans-Serif" font-size="11.00">cMap</text>
</g>
<!-- 3&#45;&gt;8 -->
<g id="edge6" class="edge">
<title>3&#45;&gt;8</title>
<path fill="none" stroke="#888888" stroke-width="1.2" d="M471.89,-201.98C495.27,-185.34 530.96,-159.92 556.39,-141.8"/>
<polygon fill="#888888" stroke="#888888" stroke-width="1.2" points="558.06,-144.05 562.95,-137.13 554.81,-139.49 558.06,-144.05"/>
</g>
<!-- 3&#45;&gt;9 -->
<g id="edge11" class="edge">
<title>3&#45;&gt;9</title>
<path fill="none" stroke="#888888" stroke-width="1.2" d="M483.86,-203.19C537.91,-179.36 634,-137 634,-137 634,-137 634,-101 634,-101 634,-101 498.24,-60.81 416.81,-36.7"/>
<polygon fill="#888888" stroke="#888888" stroke-width="1.2" points="417.57,-34.01 409.1,-34.42 415.98,-39.38 417.57,-34.01"/>
</g>
<!-- 4&#45;&gt;9 -->
<g id="edge14" class="edge">
<title>4&#45;&gt;9</title>
<path fill="none" stroke="#888888" stroke-width="1.2" d="M319.01,-100.76C326.33,-85 337.24,-61.52 345.5,-43.76"/>
<polygon fill="#888888" stroke="#888888" stroke-width="1.2" points="348.25,-44.48 349.08,-36.05 343.17,-42.12 348.25,-44.48"/>
</g>
<!-- 5&#45;&gt;9 -->
<g id="edge10" class="edge">
<title>5&#45;&gt;9</title>
<path fill="none" stroke="#888888" stroke-width="1.2" d="M394.99,-100.76C387.67,-85 376.76,-61.52 368.5,-43.76"/>
<polygon fill="#888888" stroke="#888888" stroke-width="1.2" points="370.83,-42.12 364.92,-36.05 365.75,-44.48 370.83,-42.12"/>
</g>
<!-- 6&#45;&gt;9 -->
<g id="edge12" class="edge">
<title>6&#45;&gt;9</title>
<path fill="none" stroke="#888888" stroke-width="1.2" d="M470.45,-100.98C447.51,-84.41 412.54,-59.13 387.49,-41.03"/>
<polygon fill="#888888" stroke="#888888" stroke-width="1.2" points="388.83,-38.54 380.7,-36.13 385.55,-43.08 388.83,-38.54"/>
</g>
<!-- 7&#45;&gt;9 -->
<g id="edge13" class="edge">
<title>7&#45;&gt;9</title>
<path fill="none" stroke="#888888" stroke-width="1.2" d="M231.13,-100.98C256.8,-84.26 296.05,-58.7 323.89,-40.57"/>
<polygon fill="#888888" stroke="#888888" stroke-width="1.2" points="325.53,-42.84 330.7,-36.13 322.47,-38.15 325.53,-42.84"/>
</g>
<!-- 8&#45;&gt;9 -->
<g id="edge8" class="edge">
<title>8&#45;&gt;9</title>
<path fill="none" stroke="#888888" stroke-width="1.2" d="M557.87,-105.46C519.17,-88.8 450.32,-59.17 404.16,-39.3"/>
<polygon fill="#888888" stroke="#888888" stroke-width="1.2" points="405.13,-36.67 396.67,-36.08 402.91,-41.81 405.13,-36.67"/>
</g>
</g>
</svg>
